<mxfile host="app.diagrams.net" modified="2023-08-19T00:12:58.926Z" agent="Mozilla/5.0 (Windows NT 10.0; Win64; x64) AppleWebKit/537.36 (KHTML, like Gecko) Chrome/115.0.0.0 Safari/537.36" etag="pc_cCnKEijgH3JtZiz8Z" version="21.3.4" type="device">
  <diagram name="Página-1" id="CcspUO4QLBRnwl0-WAAc">
    <mxGraphModel dx="2261" dy="1927" grid="1" gridSize="10" guides="1" tooltips="1" connect="1" arrows="1" fold="1" page="1" pageScale="1" pageWidth="827" pageHeight="1169" math="0" shadow="0">
      <root>
        <mxCell id="0" />
        <mxCell id="1" parent="0" />
        <mxCell id="Q92kpH-HWxNwyOoSadn--1" value="Número de Clientes: &lt;br&gt;91" style="rounded=1;whiteSpace=wrap;html=1;fontFamily=Helvetica;fontSize=15;align=center;fillColor=#99FF99;fontStyle=1;strokeWidth=2;" vertex="1" parent="1">
          <mxGeometry x="-620" y="-644" width="170" height="84" as="geometry" />
        </mxCell>
        <mxCell id="Q92kpH-HWxNwyOoSadn--2" value="&lt;div style=&quot;font-size: 15px;&quot;&gt;Produtos Vendidos: 51317&lt;br style=&quot;font-size: 15px;&quot;&gt;&lt;br style=&quot;font-size: 15px;&quot;&gt;&lt;/div&gt;&lt;div style=&quot;font-size: 15px;&quot;&gt;&amp;nbsp;Produtos em Estoque: 3119&lt;/div&gt;" style="rounded=1;whiteSpace=wrap;html=1;fontFamily=Helvetica;fontSize=15;align=center;fillColor=#99CCFF;fontStyle=1;strokeWidth=2;" vertex="1" parent="1">
          <mxGeometry x="-620" y="-550" width="170" height="130" as="geometry" />
        </mxCell>
        <mxCell id="Q92kpH-HWxNwyOoSadn--3" value="&lt;div&gt;Receita Bruta Total:&amp;nbsp;&lt;/div&gt;&lt;div&gt;R$ 1.354.458,59&lt;br&gt;&lt;br&gt;&lt;/div&gt;&lt;div&gt;Receita Líquida Total:&lt;/div&gt;&lt;div&gt;R$ 1.265.793,04&lt;/div&gt;" style="rounded=1;whiteSpace=wrap;html=1;fontFamily=Helvetica;fontSize=15;align=center;labelBackgroundColor=none;fillColor=#FFFF99;fontStyle=1;strokeWidth=2;" vertex="1" parent="1">
          <mxGeometry x="-440" y="-550" width="170" height="130" as="geometry" />
        </mxCell>
        <mxCell id="Q92kpH-HWxNwyOoSadn--4" value="&lt;div style=&quot;box-sizing: unset; font-size: 15px; line-height: var(--jp-code-line-height); color: var(--jp-content-font-color1); border: none; margin-top: 0px; margin-bottom: 0px; padding: 0px; overflow: auto; word-break: break-all; overflow-wrap: break-word;&quot;&gt;Número de Pedidos:&amp;nbsp;&lt;/div&gt;&lt;div style=&quot;box-sizing: unset; font-size: 15px; line-height: var(--jp-code-line-height); color: var(--jp-content-font-color1); border: none; margin-top: 0px; margin-bottom: 0px; padding: 0px; overflow: auto; word-break: break-all; overflow-wrap: break-word;&quot;&gt;830&lt;/div&gt;" style="rounded=1;whiteSpace=wrap;html=1;fontFamily=Helvetica;fontSize=15;align=center;fillColor=#FF9999;labelBackgroundColor=none;fontStyle=1;strokeWidth=2;" vertex="1" parent="1">
          <mxGeometry x="-440" y="-644" width="170" height="84" as="geometry" />
        </mxCell>
      </root>
    </mxGraphModel>
  </diagram>
</mxfile>
